# xmcd
#
# Track frame offsets: 
#        150
#        13009
#        25758
#        40868
#        52978
#        75675
#        91875
#        101648
#        115667
#        134270
#        159085
#        176464
#        194680
#        219314
#
# Disc length: 3226 seconds
#
# Revision: 1
# Processed by: cddbd v1.5.2PL0 Copyright (c) Steve Scherf et al.
# Submitted via: ExactAudioCopy v0.95a4
#
DISCID=a80c980e
DTITLE=Steve Earle - Live in Nashville 1995
DYEAR=2014
DGENRE=Country
TTITLE0=Mystery Train Part II
TTITLE1=Hometown Blues
TTITLE2=The Devil's Right Hand
TTITLE3=Angel Is the Devil
TTITLE4=Walls of Time
TTITLE5=Sometimes She Forgets
TTITLE6=You Know the Rest
TTITLE7=I'm Looking Through You
TTITLE8=Rivers of Babylon
TTITLE9=Goodbye
TTITLE10=Nothin' Without You
TTITLE11=When Will We Be Married
TTITLE12=Northern Winds - Ben McCullock
TTITLE13=Copperhead Road
EXTD=
EXTT0=
EXTT1=
EXTT2=
EXTT3=
EXTT4=
EXTT5=
EXTT6=
EXTT7=
EXTT8=
EXTT9=
EXTT10=
EXTT11=
EXTT12=
EXTT13=
PLAYORDER=
